<!DOCTYPE svg PUBLIC "-//W3C//DTD SVG 1.1//EN" "http://www.w3.org/Graphics/SVG/1.1/DTD/svg11.dtd">
<!-- Uploaded to: SVG Repo, www.svgrepo.com, Transformed by: SVG Repo Mixer Tools -->
<svg width="800px" height="800px" viewBox="-6.4 -6.4 76.80 76.80" xmlns="http://www.w3.org/2000/svg" xmlns:xlink="http://www.w3.org/1999/xlink" aria-hidden="true" role="img" class="iconify iconify--emojione-monotone" preserveAspectRatio="xMidYMid meet" fill="#ffffff" stroke="#ffffff" stroke-width="2.048">
<g id="SVGRepo_bgCarrier" stroke-width="0"/>
<g id="SVGRepo_tracerCarrier" stroke-linecap="round" stroke-linejoin="round"/>
<g id="SVGRepo_iconCarrier">
<path d="M33.9 21.676c-.553-.463-1.186-.695-1.9-.695s-1.352.232-1.912.695s-.994 1.293-1.303 2.49c-.405 1.553-.608 4.168-.608 7.846c0 3.675.182 6.203.546 7.578c.363 1.375.822 2.291 1.377 2.746c.553.457 1.186.684 1.9.684s1.352-.23 1.912-.693c.561-.465.994-1.295 1.303-2.492c.405-1.539.608-4.146.608-7.822c0-3.678-.182-6.203-.546-7.58c-.363-1.374-.822-2.294-1.377-2.757" fill="#ffffff"/>
<path d="M32 2C15.432 2 2 15.432 2 32c0 16.568 13.432 30 30 30s30-13.432 30-30C62 15.432 48.568 2 32 2zm6.975 42.795C37.308 46.932 34.983 48 32 48c-2.997 0-5.414-1.172-7.248-3.516C22.918 42.139 22 37.961 22 31.948c0-5.9 1.009-10.146 3.025-12.74C26.692 17.071 29.017 16 32 16s5.315 1.082 6.996 3.25C40.999 21.815 42 26.069 42 32.012c0 5.927-1.009 10.189-3.025 12.783z" fill="#ffffff"/>
</g>
</svg>